<?xml version="1.0" encoding="UTF-8"?>
<svg version="1.1" xmlns="http://www.w3.org/2000/svg" width="500" height="500">
<path d="M0 0 C1.56492628 0.05464029 3.12979668 0.11090182 4.6946106 0.16867065 C6.31501794 0.18600136 7.93548644 0.19828043 9.55596924 0.20574951 C13.80209269 0.24006491 18.04331522 0.34808699 22.28768921 0.4703064 C25.7619956 0.55782616 29.23590783 0.59266163 32.71110344 0.62484932 C36.85172157 0.66399239 40.99188485 0.72509632 45.1321106 0.79367065 C45.92297939 0.80652225 46.71384819 0.81937386 47.52868271 0.8326149 C49.75748153 0.87447327 51.98534424 0.9310395 54.21365356 0.99337769 C55.48191986 1.02513092 56.75018616 1.05688416 58.05688477 1.08959961 C61.0149231 1.41085815 61.0149231 1.41085815 63.0149231 3.41085815 C63.272192 6.33476162 63.272192 6.33476162 63.28234863 10.16096497 C63.28687975 10.86292812 63.29141086 11.56489128 63.29607928 12.28812605 C63.30878969 14.65193802 63.30709868 17.01552155 63.30545044 19.37936401 C63.31143153 21.06935423 63.3182361 22.75934171 63.32580566 24.44932556 C63.3435149 29.04844997 63.34816309 33.64750002 63.34943724 38.24665523 C63.35133305 42.08134234 63.35868685 45.91601201 63.36578143 49.75069243 C63.38208145 58.79489399 63.38694888 67.83905571 63.38552856 76.88327026 C63.38432648 86.22415296 63.40543797 95.56480484 63.43701589 104.9056291 C63.46313416 112.91585219 63.47389775 120.92599968 63.47261775 128.93626505 C63.47210683 133.72462573 63.47786128 138.51278137 63.49897385 143.30109978 C63.5182817 147.8032205 63.51853217 152.30493902 63.50394058 156.80707359 C63.50184212 158.46191746 63.50661472 160.11678602 63.5186615 161.77158737 C63.53401465 164.0261262 63.52487386 166.27926084 63.50939941 168.5337677 C63.51048895 169.79679183 63.51157848 171.05981596 63.51270103 172.36111355 C63.0149231 175.41085815 63.0149231 175.41085815 61.1694212 177.31728745 C58.2019108 178.82352337 55.87236988 178.78498395 52.54983521 178.78317261 C51.23845078 178.7894014 49.92706635 178.79563019 48.57594299 178.80204773 C47.14804707 178.79336031 45.72015486 178.78404239 44.29226685 178.7741394 C42.82543437 178.7736206 41.3586012 178.77413909 39.89176941 178.77565002 C36.82097972 178.7755604 33.75045312 178.76515025 30.67971802 178.74703979 C26.74305426 178.72433278 22.80677409 178.72381313 18.87006283 178.73055744 C15.84261158 178.73389793 12.81524784 178.72726618 9.78781319 178.71742821 C8.33614116 178.7135788 6.88445939 178.71242692 5.43278313 178.71401405 C3.40537202 178.71438471 1.37797379 178.70028804 -0.64938354 178.68551636 C-1.8031398 178.68090897 -2.95689606 178.67630157 -4.14561462 178.67155457 C-6.9850769 178.41085815 -6.9850769 178.41085815 -9.9850769 176.41085815 C-9.9850769 175.75085815 -9.9850769 175.09085815 -9.9850769 174.41085815 C-10.6450769 174.41085815 -11.3050769 174.41085815 -11.9850769 174.41085815 C-12.3150769 162.86085815 -12.6450769 151.31085815 -12.9850769 139.41085815 C-15.1919519 142.71085815 -17.3988269 146.01085815 -19.6725769 149.41085815 C-20.35795532 150.43437378 -21.04333374 151.4578894 -21.7494812 152.51242065 C-22.30546997 153.34515503 -22.86145874 154.1778894 -23.43429565 155.03585815 C-24.03934937 155.94206909 -24.64440308 156.84828003 -25.26779175 157.7819519 C-26.84134941 160.19083289 -28.3364117 162.63179953 -29.81710815 165.09835815 C-30.53253784 166.19148315 -31.24796753 167.28460815 -31.9850769 168.41085815 C-32.6450769 168.41085815 -33.3050769 168.41085815 -33.9850769 168.41085815 C-33.9850769 169.40085815 -33.9850769 170.39085815 -33.9850769 171.41085815 C-34.6450769 171.41085815 -35.3050769 171.41085815 -35.9850769 171.41085815 C-36.25062378 172.13144409 -36.51617065 172.85203003 -36.7897644 173.5944519 C-38.00212405 176.45102478 -39.42277972 178.87178133 -41.1100769 181.47335815 C-41.72753784 182.4272644 -42.34499878 183.38117065 -42.98117065 184.36398315 C-46.29095512 189.39640398 -49.6296195 194.40880516 -52.9850769 199.41085815 C-53.68245972 200.47691284 -54.37984253 201.54296753 -55.09835815 202.6413269 C-56.9850769 205.41085815 -56.9850769 205.41085815 -58.9850769 207.41085815 C-59.7430258 208.72804276 -60.4680585 210.06433834 -61.1725769 211.41085815 C-63.4965244 215.66692479 -66.12534599 219.57019723 -68.94210815 223.51242065 C-71.47502777 227.10597009 -73.92174986 230.75271388 -76.3600769 234.41085815 C-76.80117798 235.07037476 -77.24227905 235.72989136 -77.69674683 236.40939331 C-79.98755486 239.82312138 -79.98755486 239.82312138 -81.9850769 243.41085815 C-82.6450769 243.41085815 -83.3050769 243.41085815 -83.9850769 243.41085815 C-84.07917847 243.95613159 -84.17328003 244.50140503 -84.27023315 245.0632019 C-85.18765561 248.07615761 -86.69962078 250.34056658 -88.4225769 252.97335815 C-89.34876831 254.39841675 -89.34876831 254.39841675 -90.29367065 255.8522644 C-91.52024655 257.70770831 -92.7513009 259.56019414 -93.9850769 261.41085815 C-94.6450769 261.41085815 -95.3050769 261.41085815 -95.9850769 261.41085815 C-96.08949097 262.14562378 -96.19390503 262.8803894 -96.30148315 263.63742065 C-97.04846596 266.6680366 -98.06595954 268.29580663 -99.9225769 270.78585815 C-102.98030611 274.99803615 -105.92330532 279.26036306 -108.7975769 283.59835815 C-109.4326416 284.55427856 -109.4326416 284.55427856 -110.08053589 285.5295105 C-110.94965686 286.83784708 -111.81838793 288.14644276 -112.68673706 289.45529175 C-114.78142457 292.61032126 -116.8836249 295.76033223 -118.9850769 298.91085815 C-119.59802612 299.83076538 -119.59802612 299.83076538 -120.22335815 300.76925659 C-122.36557041 303.9842591 -124.51084965 307.197157 -126.66085815 310.4069519 C-127.10236206 311.0669519 -127.54386597 311.7269519 -127.99874878 312.4069519 C-128.83110053 313.65109874 -129.66435204 314.89464438 -130.49874878 316.13742065 C-130.88224487 316.71105347 -131.26574097 317.28468628 -131.66085815 317.8757019 C-132.02455411 318.40896843 -132.38825006 318.94223495 -132.76296711 319.49166107 C-134.02247572 321.395317 -134.02247572 321.395317 -135.01153088 323.47415924 C-136.17201026 325.69932696 -137.30419794 327.54270273 -138.9850769 329.41085815 C-142.2048292 330.2199896 -144.1450119 330.43792665 -147.35543823 330.31906128 C-148.18522186 330.32022949 -149.01500549 330.32139771 -149.86993408 330.32260132 C-152.60404759 330.31704132 -155.33376034 330.25489809 -158.06710815 330.19210815 C-159.96565874 330.17718196 -161.8642402 330.16579672 -163.76283264 330.1578064 C-168.75314842 330.12730174 -173.74159288 330.04875403 -178.73117065 329.96017456 C-183.82531416 329.87824646 -188.91976095 329.8417801 -194.01437378 329.80148315 C-204.0054291 329.71575748 -213.99509723 329.57927124 -223.9850769 329.41085815 C-225.00834374 324.64103367 -224.94915578 322.5154362 -222.26339722 318.32052612 C-221.84155151 317.69033569 -221.41970581 317.06014526 -220.9850769 316.41085815 C-220.07489576 314.94423293 -219.16610217 313.4767459 -218.2585144 312.0085144 C-217.29438338 310.49550987 -216.32821177 308.98380386 -215.3600769 307.47335815 C-214.87023315 306.69411987 -214.3803894 305.91488159 -213.8757019 305.11203003 C-213.40390503 304.37661987 -212.93210815 303.64120972 -212.4460144 302.8835144 C-211.80865356 301.88203369 -211.80865356 301.88203369 -211.15841675 300.86032104 C-210.7712146 300.38199829 -210.38401245 299.90367554 -209.9850769 299.41085815 C-209.3250769 299.41085815 -208.6650769 299.41085815 -207.9850769 299.41085815 C-207.9850769 298.42085815 -207.9850769 297.43085815 -207.9850769 296.41085815 C-207.3250769 296.41085815 -206.6650769 296.41085815 -205.9850769 296.41085815 C-205.89750122 295.87203003 -205.80992554 295.3332019 -205.71969604 294.77804565 C-204.7377047 291.61374252 -203.08487773 289.28164704 -201.23117065 286.53585815 C-200.85203018 285.97068481 -200.47288971 285.40551147 -200.08226013 284.82321167 C-198.8677547 283.01539648 -197.6453831 281.2130663 -196.4225769 279.41085815 C-195.62711904 278.23022952 -194.83219222 277.04924291 -194.03781128 275.8678894 C-192.45796453 273.51977482 -190.87529102 271.17360488 -189.29049683 268.8288269 C-186.45857443 264.635382 -183.65392883 260.42388281 -180.85006714 256.2116394 C-179.10310632 253.58811087 -177.35167828 250.96763951 -175.59835815 248.34835815 C-168.03630736 237.04139922 -160.56754355 225.67801238 -153.18331909 214.25411987 C-152.12888028 212.63207157 -151.05822926 211.02058668 -149.9850769 209.41085815 C-149.3250769 209.41085815 -148.6650769 209.41085815 -147.9850769 209.41085815 C-147.9850769 208.42085815 -147.9850769 207.43085815 -147.9850769 206.41085815 C-147.3250769 206.41085815 -146.6650769 206.41085815 -145.9850769 206.41085815 C-145.91087524 205.73128052 -145.83667358 205.05170288 -145.76022339 204.35153198 C-144.75158462 200.52505831 -142.77140446 197.59862958 -140.58273315 194.3600769 C-140.14497055 193.70127029 -139.70720795 193.04246368 -139.25617981 192.36369324 C-138.33290774 190.97859499 -137.40562043 189.59616578 -136.47457886 188.21627808 C-135.04543161 186.09517417 -133.63270075 183.96379172 -132.22140503 181.83078003 C-131.32197225 180.48573798 -130.42161374 179.14131441 -129.52023315 177.7975769 C-129.09621719 177.1570488 -128.67220123 176.51652069 -128.2353363 175.85658264 C-127.20382892 174.33808247 -126.10082427 172.86858175 -124.9850769 171.41085815 C-124.3250769 171.41085815 -123.6650769 171.41085815 -122.9850769 171.41085815 C-122.9850769 170.42085815 -122.9850769 169.43085815 -122.9850769 168.41085815 C-122.3250769 168.41085815 -121.6650769 168.41085815 -120.9850769 168.41085815 C-120.8613269 167.83335815 -120.7375769 167.25585815 -120.6100769 166.66085815 C-119.97858866 164.38750049 -119.096495 162.48550526 -117.9850769 160.41085815 C-117.3250769 160.41085815 -116.6650769 160.41085815 -115.9850769 160.41085815 C-115.72081909 159.69518677 -115.45656128 158.97951538 -115.18429565 158.24215698 C-113.04581272 153.19329977 -109.92494695 148.71182892 -106.9850769 144.09835815 C-106.34312378 143.07161987 -105.70117065 142.04488159 -105.0397644 140.98703003 C-104.42359253 140.0170105 -103.80742065 139.04699097 -103.1725769 138.0475769 C-102.60925659 137.15772095 -102.04593628 136.26786499 -101.46554565 135.3510437 C-100.97699097 134.71078247 -100.48843628 134.07052124 -99.9850769 133.41085815 C-99.3250769 133.41085815 -98.6650769 133.41085815 -97.9850769 133.41085815 C-97.74015503 132.72120972 -97.49523315 132.03156128 -97.2428894 131.3210144 C-95.77561882 127.9262424 -93.88678483 124.92547568 -91.8600769 121.84835815 C-91.46409302 121.24064575 -91.06810913 120.63293335 -90.66012573 120.00680542 C-89.4399491 118.13826567 -88.21302708 116.27429604 -86.9850769 114.41085815 C-86.60947632 113.83722534 -86.23387573 113.26359253 -85.84689331 112.6725769 C-79.72912391 103.33046681 -79.72912391 103.33046681 -76.8991394 99.83273315 C-75.19304037 97.6739956 -73.92877428 95.65809707 -72.6725769 93.22335815 C-70.39773757 89.02524556 -67.8017 85.19118717 -65.02804565 81.30929565 C-62.49512604 77.71574622 -60.04840395 74.06900243 -57.6100769 70.41085815 C-57.16897583 69.75134155 -56.72787476 69.09182495 -56.27340698 68.412323 C-53.98259895 64.99859493 -53.98259895 64.99859493 -51.9850769 61.41085815 C-51.3250769 61.41085815 -50.6650769 61.41085815 -49.9850769 61.41085815 C-49.89097534 60.86558472 -49.79687378 60.32031128 -49.69992065 59.7585144 C-48.7824982 56.7455587 -47.27053303 54.48114973 -45.5475769 51.84835815 C-44.93011597 50.89831909 -44.31265503 49.94828003 -43.67648315 48.9694519 C-42.44990726 47.114008 -41.21885291 45.26152216 -39.9850769 43.41085815 C-39.3250769 43.41085815 -38.6650769 43.41085815 -37.9850769 43.41085815 C-37.88066284 42.67609253 -37.77624878 41.9413269 -37.66867065 41.18429565 C-36.92168785 38.15367971 -35.90419427 36.52590968 -34.0475769 34.03585815 C-30.94499112 29.76344494 -27.96342245 25.43643171 -25.0475769 21.03585815 C-24.66545044 20.46045288 -24.28332397 19.88504761 -23.88961792 19.29220581 C-23.30458496 18.41121216 -23.30458496 18.41121216 -22.70773315 17.51242065 C-22.29862701 16.92639069 -21.88952087 16.34036072 -21.46801758 15.73657227 C-19.88749487 13.36069181 -19.88749487 13.36069181 -18.55558777 10.4289856 C-13.88999167 1.6460459 -9.41881015 -0.09388366 0 0 Z " fill="#005481" transform="translate(303.9850769042969,16.589141845703125)"/>
<path d="M0 0 C0.6489624 -0.0049649 1.2979248 -0.00992981 1.96655273 -0.01504517 C4.1164658 -0.02966773 6.26630511 -0.03646838 8.41625977 -0.04199219 C9.908371 -0.04774293 11.4004822 -0.05350067 12.89259338 -0.05926514 C16.02231186 -0.06977495 19.15200464 -0.07561795 22.28173828 -0.07910156 C26.29472397 -0.08459073 30.30737111 -0.10862748 34.32025051 -0.13707352 C37.40258278 -0.155683 40.48483316 -0.16090455 43.56721687 -0.16243744 C45.04682329 -0.16546761 46.52642814 -0.17350844 48.00597954 -0.18662262 C50.07456231 -0.20365101 52.14231336 -0.20181157 54.2109375 -0.1953125 C55.38849106 -0.19895813 56.56604462 -0.20260376 57.77928162 -0.20635986 C60.67016602 0.16113281 60.67016602 0.16113281 62.5478363 1.48526001 C64.39537444 4.24402055 64.09597776 6.93110408 64.14672852 10.20019531 C64.16230804 10.88165619 64.17788757 11.56311707 64.19393921 12.26522827 C64.24142543 14.43885185 64.26921667 16.61215444 64.29516602 18.78613281 C64.3316262 20.96702737 64.37219358 23.14773868 64.41781616 25.32846069 C64.45750508 27.3019974 64.48524943 29.27576341 64.51245117 31.24951172 C64.33927383 34.05284918 64.33927383 34.05284918 65.67016602 35.16113281 C67.93749824 35.28328248 70.20835307 35.34093559 72.47875977 35.37207031 C73.87916215 35.40013523 75.27955263 35.42879968 76.67993164 35.45800781 C78.89648148 35.49932373 81.11280811 35.53619383 83.32958984 35.5625 C85.4631183 35.59003859 87.59562291 35.63590368 89.72875977 35.68457031 C91.01065186 35.70438965 92.29254395 35.72420898 93.61328125 35.74462891 C94.62205322 35.8820752 95.6308252 36.01952148 96.67016602 36.16113281 C99.07253344 39.76468395 98.92826245 41.41042833 98.94482422 45.69628906 C98.94993515 46.35515106 98.95504608 47.01401306 98.96031189 47.69284058 C98.97420772 49.86986381 98.97325141 52.04657052 98.97094727 54.22363281 C98.9748338 55.73673623 98.97916838 57.24983855 98.9839325 58.76293945 C98.99139436 61.9337925 98.99110341 65.1045342 98.98583984 68.27539062 C98.98004075 72.34106315 98.99698657 76.40628077 99.02018452 80.47187805 C99.03490649 83.59625925 99.03579576 86.72053045 99.03267479 89.84494019 C99.03318863 91.34407453 99.03843821 92.84321492 99.04848671 94.34231567 C99.06080662 96.43717148 99.0540877 98.53113533 99.04248047 100.62597656 C99.04310989 101.81827881 99.04373932 103.01058105 99.04438782 104.23901367 C98.67016602 107.16113281 98.67016602 107.16113281 97.34603882 109.04255676 C94.58002322 110.88875821 91.87038787 110.60602624 88.59594727 110.67285156 C87.34467041 110.70596436 86.09339355 110.73907715 84.80419922 110.77319336 C83.21309326 110.79808838 81.6219873 110.8229834 79.98266602 110.84863281 C74.92954102 110.95175781 69.87641602 111.05488281 64.67016602 111.16113281 C64.34016602 121.72113281 64.01016602 132.28113281 63.67016602 143.16113281 C60.74934146 144.62154509 58.18715233 144.28042077 54.92553711 144.2746582 C53.88634377 144.27487724 53.88634377 144.27487724 52.82615662 144.27510071 C50.5319406 144.274403 48.23780538 144.26661723 45.94360352 144.25878906 C44.35462488 144.25692438 42.76564567 144.25550071 41.17666626 144.25450134 C36.99107277 144.25068012 32.80551388 144.2408532 28.61993408 144.22979736 C24.35022449 144.21957476 20.08050931 144.2150019 15.81079102 144.20996094 C7.43056679 144.19923059 -0.9496293 144.18215889 -9.32983398 144.16113281 C-10.80625758 141.20828562 -10.55256337 138.47664298 -10.64624023 135.18457031 C-10.68434814 133.9307959 -10.72245605 132.67702148 -10.76171875 131.38525391 C-10.80482178 129.78504395 -10.8479248 128.18483398 -10.89233398 126.53613281 C-11.03670898 121.46238281 -11.18108398 116.38863281 -11.32983398 111.16113281 C-21.55983398 110.83113281 -31.78983398 110.50113281 -42.32983398 110.16113281 C-42.32983398 109.50113281 -42.32983398 108.84113281 -42.32983398 108.16113281 C-43.31983398 107.83113281 -44.30983398 107.50113281 -45.32983398 107.16113281 C-46.72021993 104.38036092 -46.45706522 102.11033635 -46.45922852 98.99902344 C-46.46238068 97.70428101 -46.46553284 96.40953857 -46.46878052 95.07556152 C-46.46699068 93.65616828 -46.46493972 92.23677534 -46.46264648 90.81738281 C-46.46331983 89.36771631 -46.46429011 87.91804991 -46.46554565 86.46838379 C-46.46702118 83.42861863 -46.46487273 80.38888284 -46.46020508 77.34912109 C-46.45450787 73.44826165 -46.45778765 69.547471 -46.46377754 65.64661407 C-46.46738707 62.65268432 -46.46624276 59.65877094 -46.46364975 56.6648407 C-46.46298157 55.22629285 -46.46380513 53.78774352 -46.4661293 52.34919739 C-46.46866218 50.34054593 -46.46411874 48.33188929 -46.45922852 46.32324219 C-46.45843292 45.1789978 -46.45763733 44.03475342 -46.45681763 42.85583496 C-46.32983398 40.16113281 -46.32983398 40.16113281 -45.32983398 38.16113281 C-44.66983398 38.16113281 -44.00983398 38.16113281 -43.32983398 38.16113281 C-43.32983398 37.50113281 -43.32983398 36.84113281 -43.32983398 36.16113281 C-32.43983398 35.83113281 -21.54983398 35.50113281 -10.32983398 35.16113281 C-10.32983398 24.60113281 -10.32983398 14.04113281 -10.32983398 3.16113281 C-9.66983398 3.16113281 -9.00983398 3.16113281 -8.32983398 3.16113281 C-8.32983398 2.50113281 -8.32983398 1.84113281 -8.32983398 1.16113281 C-5.51290257 -0.24733289 -3.15058446 0.0182809 0 0 Z " fill="#017C89" transform="translate(303.329833984375,201.8388671875)"/>
<path d="M0 0 C10.33333333 0 20.66666667 0 31 0 C32.35808067 -0.01078237 33.71615391 -0.02253572 35.07421875 -0.03515625 C36.61197832 -0.0444119 38.14973878 -0.05352224 39.6875 -0.0625 C40.47189453 -0.07087891 41.25628906 -0.07925781 42.06445312 -0.08789062 C44.04316717 -0.09644168 46.02196544 -0.0525514 48 0 C49 1 49 1 49.09765625 3.06640625 C49.08605469 3.89011719 49.07445312 4.71382813 49.0625 5.5625 C49.05347656 6.38878906 49.04445313 7.21507812 49.03515625 8.06640625 C49.02355469 8.70449219 49.01195312 9.34257812 49 10 C47.68 10 46.36 10 45 10 C45.33 16.6 45.66 23.2 46 30 C47.32 30.66 48.64 31.32 50 32 C50.125 35.375 50.125 35.375 50 39 C48 41 48 41 44.91796875 41.23046875 C43.68691406 41.21628906 42.45585937 41.20210938 41.1875 41.1875 C39.35251953 41.17783203 39.35251953 41.17783203 37.48046875 41.16796875 C34.52337201 41.02525813 31.87153435 40.68369865 29 40 C29 37.36 29 34.72 29 32 C30.32 31.34 31.64 30.68 33 30 C33 23.73 33 17.46 33 11 C27.52565835 9.63106761 27.52565835 9.63106761 20 11 C19.67 20.57 19.34 30.14 19 40 C14.545 40.495 14.545 40.495 10 41 C7.24560484 38.24560484 7.69010724 36.53396797 7.5859375 32.6796875 C7.54726563 31.42285156 7.50859375 30.16601562 7.46875 28.87109375 C7.4378125 27.55238281 7.406875 26.23367188 7.375 24.875 C7.33681971 23.53513082 7.29776794 22.19528617 7.2578125 20.85546875 C7.1632797 17.57045381 7.07772844 14.28544862 7 11 C4.36 10.67 1.72 10.34 -1 10 C-2.17592676 5.88425634 -1.70182603 3.86483393 0 0 Z " fill="#1639CB" transform="translate(281,385)"/>
<path d="M0 0 C0.62131237 11.5530517 -8.66459749 20.9281229 -15.66992188 29.35595703 C-16.86118953 30.82842333 -17.97548997 32.36238543 -19.078125 33.90234375 C-25.3347577 42.0926208 -34.17084822 44.91691505 -44 47 C-44.99 47 -45.98 47 -47 47 C-47.33 43.37 -47.66 39.74 -48 36 C-51.96 35.67 -55.92 35.34 -60 35 C-57.15609079 29.31218158 -53.06831991 24.8563885 -49 20 C-48.11054688 18.86884766 -48.11054688 18.86884766 -47.203125 17.71484375 C-43.05941886 12.59440687 -38.22175817 8.39067557 -32 6 C-29.1953125 6.34765625 -29.1953125 6.34765625 -27 7 C-27.35442169 9.89981383 -27.8921607 10.89929563 -30.06640625 12.9296875 C-31.7295697 14.22586183 -33.39624484 15.51754282 -35.06640625 16.8046875 C-37.31881978 18.92311402 -37.31881978 18.92311402 -37.27734375 22.2578125 C-37.18582031 23.16273438 -37.09429687 24.06765625 -37 25 C-30.24520726 25.7342166 -25.81475715 23.27591952 -20 20 C-20.99 20.33 -21.98 20.66 -23 21 C-23.495 20.01 -23.495 20.01 -24 19 C-23.35891863 17.32332564 -22.68528045 15.65910004 -22 14 C-21.2664243 11.34632682 -20.63584616 8.67963737 -20 6 C-19.34 6 -18.68 6 -18 6 C-18 7.98 -18 9.96 -18 12 C-17.896875 10.88625 -17.79375 9.7725 -17.6875 8.625 C-17.460625 7.42875 -17.23375 6.2325 -17 5 C-16.01 4.34 -15.02 3.68 -14 3 C-13.505 3.495 -13.505 3.495 -13 4 C-12.34 3.01 -11.68 2.02 -11 1 C-10.01 1 -9.02 1 -8 1 C-8 2.65 -8 4.3 -8 6 C-7.236875 5.01 -6.47375 4.02 -5.6875 3 C-3.375 0 -3.375 0 0 0 Z " fill="#F7B726" transform="translate(340,277)"/>
<path d="M0 0 C0.06058594 0.71027344 0.12117188 1.42054688 0.18359375 2.15234375 C0.26738281 3.07144531 0.35117187 3.99054688 0.4375 4.9375 C0.51871094 5.85402344 0.59992188 6.77054688 0.68359375 7.71484375 C0.76044976 9.96159732 0.76044976 9.96159732 2 11 C4.01594582 11.23427778 6.038474 11.41336124 8.0625 11.5625 C9.16722656 11.64628906 10.27195312 11.73007813 11.41015625 11.81640625 C12.69212891 11.90728516 12.69212891 11.90728516 14 12 C14 12.66 14 13.32 14 14 C13.175 14.639375 12.35 15.27875 11.5 15.9375 C8.38815351 18.39768923 6.32650533 21.18933641 4.0625 24.4375 C0.79527582 29.0676234 -2.44633037 32.65203013 -7 36 C-8.5159375 37.175625 -8.5159375 37.175625 -10.0625 38.375 C-13.34963449 40.19341482 -15.30275367 40.3521187 -19 40 C-18.687606 36.72270298 -18.32168457 35.31560357 -15.93359375 32.97265625 C-14.26914319 31.69892179 -12.60247043 30.42808596 -10.93359375 29.16015625 C-8.67802403 27.07589945 -8.67802403 27.07589945 -8.72265625 23.74609375 C-8.81417969 22.83988281 -8.90570313 21.93367188 -9 21 C-14.66442374 21.36504064 -19.00703705 22.0554321 -24 25 C-23.79375 25.7425 -23.5875 26.485 -23.375 27.25 C-22.93448652 30.48043218 -23.44623119 31.21957159 -25 34 C-25.309375 35.19625 -25.61875 36.3925 -25.9375 37.625 C-27 41 -27 41 -30 43 C-31.32 43 -32.64 43 -34 43 C-34.33 43.99 -34.66 44.98 -35 46 C-35.99 46 -36.98 46 -38 46 C-37.67 43.36 -37.34 40.72 -37 38 C-39.97 42.455 -39.97 42.455 -43 47 C-44.32 46.67 -45.64 46.34 -47 46 C-45.32384701 33.42885255 -36.43896432 24.15790963 -28.52026367 14.80932617 C-27.53713363 13.63926407 -26.56745906 12.45770418 -25.61450195 11.26293945 C-19.62855769 3.78647348 -9.52213042 0 0 0 Z " fill="#F6B627" transform="translate(367,226)"/>
<path d="M0 0 C2.64 0 5.28 0 8 0 C8.33 0.99 8.66 1.98 9 3 C116.25 3 223.5 3 334 3 C334.33 2.01 334.66 1.02 335 0 C337.64 0 340.28 0 343 0 C343 2.97 343 5.94 343 9 C340.03 9 337.06 9 334 9 C334 8.01 334 7.02 334 6 C226.75 6 119.5 6 9 6 C9 6.99 9 7.98 9 9 C6.03 9 3.06 9 0 9 C0 6.03 0 3.06 0 0 Z " fill="#FFD707" transform="translate(68,350)"/>
<path d="M0 0 C6.31314633 1.31769721 9.59640695 5.13081893 13.875 9.625 C14.56335938 10.33140625 15.25171875 11.0378125 15.9609375 11.765625 C17.65007434 13.50168231 19.32913151 15.24638373 21 17 C21.04898437 15.94039063 21.09796875 14.88078125 21.1484375 13.7890625 C21.22346709 12.40101503 21.29901485 11.01299549 21.375 9.625 C21.42140625 8.57699219 21.42140625 8.57699219 21.46875 7.5078125 C21.7734375 2.2265625 21.7734375 2.2265625 24 0 C25.875 -0.265625 25.875 -0.265625 28 -0.25 C28.70125 -0.25515625 29.4025 -0.2603125 30.125 -0.265625 C32 0 32 0 34 2 C34.17525055 4.79684797 34.23143189 7.4932808 34.1953125 10.2890625 C34.1924826 11.10748627 34.18965271 11.92591003 34.18673706 12.76913452 C34.17552532 15.38790393 34.15041929 18.00633364 34.125 20.625 C34.11497147 22.39843257 34.1058454 24.17187049 34.09765625 25.9453125 C34.07558278 30.29700626 34.04104644 34.6484455 34 39 C32.68 39.66 31.36 40.32 30 41 C25.02736502 36.76797023 20.30542104 32.390384 15.76171875 27.69921875 C13.90690694 25.80910864 13.90690694 25.80910864 11 24 C10.93941406 25.14339844 10.87882813 26.28679687 10.81640625 27.46484375 C10.73201572 28.95574305 10.64736698 30.44662775 10.5625 31.9375 C10.50352539 33.06961914 10.50352539 33.06961914 10.44335938 34.22460938 C10.11328125 39.88671875 10.11328125 39.88671875 9 41 C1.47761194 41.23880597 1.47761194 41.23880597 -1 40 C-1.02464775 34.46411467 -1.04283496 28.928261 -1.05493164 23.39233398 C-1.05997244 21.5075627 -1.06680498 19.62279535 -1.07543945 17.73803711 C-1.08751617 15.03498364 -1.09323068 12.33198169 -1.09765625 9.62890625 C-1.10281754 8.78099014 -1.10797882 7.93307404 -1.11329651 7.0594635 C-1.11349195 5.03928932 -1.06206211 3.01922066 -1 1 C-0.67 0.67 -0.34 0.34 0 0 Z " fill="#1639CB" transform="translate(244,385)"/>
<path d="M0 0 C7.84018434 0.0040648 13.49129733 0.3398733 19.75 5.625 C24.25539548 11.03147458 25.92572415 15.21982031 25.9375 22.25 C25.33739638 28.15283746 23.05734221 32.9712658 18.9375 37.25 C12.69531959 41.23437048 6.37625823 41.38923211 -0.875 41.375 C-1.55498047 41.37886719 -2.23496094 41.38273437 -2.93554688 41.38671875 C-7.93575175 41.37674825 -7.93575175 41.37674825 -9.0625 40.25 C-9.16356874 37.37735944 -9.20219672 34.52926372 -9.1953125 31.65625 C-9.19626923 30.79439087 -9.19722595 29.93253174 -9.19821167 29.04455566 C-9.1988935 27.21866788 -9.19703904 25.39277769 -9.19287109 23.56689453 C-9.18752286 20.76198922 -9.19281599 17.95724405 -9.19921875 15.15234375 C-9.19855797 13.38281214 -9.19727681 11.61328064 -9.1953125 9.84375 C-9.19733673 8.99897095 -9.19936096 8.15419189 -9.20144653 7.28381348 C-9.16894304 -0.73343854 -7.36312212 0.02694576 0 0 Z M1.9375 11.25 C1.9375 17.52 1.9375 23.79 1.9375 30.25 C9.29754593 30.96955482 9.29754593 30.96955482 12.375 28.6875 C14.43987912 25.46628857 14.8037942 23.06061528 14.9375 19.25 C14.00111327 15.81658199 12.8217851 13.38650748 9.9375 11.25 C6.61009596 10.25177879 5.28705444 10.13348185 1.9375 11.25 Z " fill="#1639CB" transform="translate(149.0625,384.75)"/>
<path d="M0 0 C3.35543491 1.67054772 5.2097086 3.66028311 6.765625 6.97265625 C7.765625 10.34765625 7.765625 10.34765625 6.765625 12.34765625 C3.465625 12.34765625 0.165625 12.34765625 -3.234375 12.34765625 C-3.234375 11.68765625 -3.234375 11.02765625 -3.234375 10.34765625 C-5.874375 10.34765625 -8.514375 10.34765625 -11.234375 10.34765625 C-11.564375 11.66765625 -11.894375 12.98765625 -12.234375 14.34765625 C-10.93113281 14.49460937 -10.93113281 14.49460937 -9.6015625 14.64453125 C2.22992166 16.17971264 2.22992166 16.17971264 6.765625 20.34765625 C9.35206964 23.75706055 9.13065615 27.18630115 8.765625 31.34765625 C7.4055541 35.00284679 5.55214609 36.73403938 2.265625 38.66015625 C-3.88702256 41.45268632 -10.35427934 41.34259839 -16.671875 39.16015625 C-19.54892992 37.12516618 -21.37674427 35.34844436 -23.234375 32.34765625 C-23.546875 29.59765625 -23.546875 29.59765625 -23.234375 27.34765625 C-22.234375 26.34765625 -22.234375 26.34765625 -18.421875 26.09765625 C-14.63509425 26.12456055 -13.19283418 26.9808889 -10.234375 29.34765625 C-7.06705079 29.59852349 -7.06705079 29.59852349 -4.234375 29.34765625 C-3.904375 28.35765625 -3.574375 27.36765625 -3.234375 26.34765625 C-4.18699219 26.1775 -5.13960938 26.00734375 -6.12109375 25.83203125 C-7.37535156 25.5896875 -8.62960937 25.34734375 -9.921875 25.09765625 C-11.16324219 24.865625 -12.40460938 24.63359375 -13.68359375 24.39453125 C-17.4226379 23.2921508 -19.4393238 22.0234381 -22.234375 19.34765625 C-24.09895699 15.61849228 -23.79485786 11.40804321 -23.234375 7.34765625 C-18.71949605 -1.53762552 -8.83108719 -2.57830692 0 0 Z " fill="#1639CB" transform="translate(356.234375,385.65234375)"/>
<path d="M0 0 C1.53527344 -0.01836914 1.53527344 -0.01836914 3.1015625 -0.03710938 C4.07867187 -0.03904297 5.05578125 -0.04097656 6.0625 -0.04296875 C7.41021484 -0.04913208 7.41021484 -0.04913208 8.78515625 -0.05541992 C11 0.1875 11 0.1875 13 2.1875 C13.1875 5.75 13.1875 5.75 13 9.1875 C11.12175109 11.06574891 7.96064724 10.57852397 5.4375 10.75 C4.23996094 10.83378906 3.04242188 10.91757812 1.80859375 11.00390625 C0.88175781 11.06449219 -0.04507813 11.12507813 -1 11.1875 C-1 12.1775 -1 13.1675 -1 14.1875 C-0.14535156 14.23648437 0.70929688 14.28546875 1.58984375 14.3359375 C3.24693359 14.44808594 3.24693359 14.44808594 4.9375 14.5625 C6.59072266 14.66691406 6.59072266 14.66691406 8.27734375 14.7734375 C9.62505859 14.97839844 9.62505859 14.97839844 11 15.1875 C12.38125018 17.95000036 12.19079306 20.13481099 12 23.1875 C9.41073669 25.77676331 7.97294721 25.56148043 4.375 25.8125 C3.37210938 25.88726562 2.36921875 25.96203125 1.3359375 26.0390625 C0.17964844 26.11253906 0.17964844 26.11253906 -1 26.1875 C-1 27.5075 -1 28.8275 -1 30.1875 C5.93 30.6825 5.93 30.6825 13 31.1875 C13.09765625 38.12109375 13.09765625 38.12109375 13 40.1875 C10.52401267 42.66348733 3.89139842 41.3730126 0.5625 41.375 C-1.05108398 41.39336914 -1.05108398 41.39336914 -2.69726562 41.41210938 C-3.72400391 41.41404297 -4.75074219 41.41597656 -5.80859375 41.41796875 C-7.22869751 41.42413208 -7.22869751 41.42413208 -8.67749023 41.43041992 C-11 41.1875 -11 41.1875 -13 39.1875 C-13.17532289 36.31861419 -13.23137614 33.54757355 -13.1953125 30.6796875 C-13.1924826 29.83906769 -13.18965271 28.99844788 -13.18673706 28.13235474 C-13.1755243 25.44225954 -13.15041803 22.7524949 -13.125 20.0625 C-13.1149716 18.24089022 -13.10584551 16.41927523 -13.09765625 14.59765625 C-13.07558142 10.12747642 -13.04104434 5.65754429 -13 1.1875 C-9.11308052 -0.75595974 -4.27485419 0.00269197 0 0 Z " fill="#1639CB" transform="translate(226,384.8125)"/>
<path d="M0 0 C3.80356148 1.53167371 4.76211139 4.31216155 6.359375 7.86328125 C6.689375 8.56090576 7.019375 9.25853027 7.359375 9.97729492 C8.46234095 12.32649923 9.53559967 14.68810461 10.609375 17.05078125 C11.4472395 18.85317953 12.2857989 20.65525491 13.125 22.45703125 C13.95497216 24.2582646 14.78312773 26.06033621 15.609375 27.86328125 C16.00737305 28.72864502 16.40537109 29.59400879 16.81542969 30.4855957 C17.36312012 31.70315552 17.36312012 31.70315552 17.921875 32.9453125 C18.41107422 34.02582886 18.41107422 34.02582886 18.91015625 35.12817383 C19.609375 37.05078125 19.609375 37.05078125 19.609375 40.05078125 C15.64145586 40.88127595 12.50287493 41.34861456 8.609375 40.05078125 C7.949375 39.06078125 7.289375 38.07078125 6.609375 37.05078125 C3.32672737 36.57023729 3.32672737 36.57023729 -0.390625 36.67578125 C-1.64875 36.66804688 -2.906875 36.6603125 -4.203125 36.65234375 C-5.255 36.78382813 -6.306875 36.9153125 -7.390625 37.05078125 C-8.050625 38.04078125 -8.710625 39.03078125 -9.390625 40.05078125 C-11.7734375 40.5625 -11.7734375 40.5625 -14.515625 40.73828125 C-15.88074219 40.83689453 -15.88074219 40.83689453 -17.2734375 40.9375 C-18.32144531 40.99357422 -18.32144531 40.99357422 -19.390625 41.05078125 C-20.86981566 36.8548971 -19.95490695 34.29932041 -18.11576843 30.35176086 C-17.76690079 29.6401329 -17.41803314 28.92850494 -17.05859375 28.1953125 C-16.70678543 27.45246506 -16.35497711 26.70961761 -15.99250793 25.94425964 C-15.24806824 24.37880713 -14.49707144 22.81645818 -13.73999023 21.25708008 C-12.58009591 18.86734192 -11.43979279 16.46903447 -10.30273438 14.06835938 C-9.57664314 12.54764071 -8.8494663 11.02743981 -8.12109375 9.5078125 C-7.7782988 8.79011185 -7.43550385 8.07241119 -7.08232117 7.33296204 C-3.54965811 0.07540123 -3.54965811 0.07540123 0 0 Z M-0.390625 19.05078125 C-1.380625 21.03078125 -2.370625 23.01078125 -3.390625 25.05078125 C-0.915625 25.54578125 -0.915625 25.54578125 1.609375 26.05078125 C1.939375 25.39078125 2.269375 24.73078125 2.609375 24.05078125 C1.71573895 21.44146859 1.71573895 21.44146859 0.609375 19.05078125 C0.279375 19.05078125 -0.050625 19.05078125 -0.390625 19.05078125 Z " fill="#1639CB" transform="translate(118.390625,384.94921875)"/>
<path d="M0 0 C5.95703125 -0.390625 5.95703125 -0.390625 8 0 C11.05357054 3.07647232 12.52894882 7.11883387 14.1875 11.0625 C14.59645508 11.99932617 14.59645508 11.99932617 15.01367188 12.95507812 C16.22924342 15.809691 17 17.86439599 17 21 C17.66 21 18.32 21 19 21 C19.10441406 20.32324219 19.20882812 19.64648438 19.31640625 18.94921875 C20.14152699 15.38941214 21.48354865 12.14926604 22.9375 8.8125 C23.20240234 8.18408203 23.46730469 7.55566406 23.74023438 6.90820312 C24.92139858 4.16778493 25.87060456 2.12939544 28 0 C34.32258065 -0.33870968 34.32258065 -0.33870968 37 1 C36.40724653 5.88726885 34.89569773 10.05203143 32.91015625 14.515625 C32.45327675 15.56118561 32.45327675 15.56118561 31.98716736 16.62786865 C31.34571794 18.09157047 30.70092965 19.55381316 30.05297852 21.01464844 C29.06099667 23.25339278 28.08154016 25.49731594 27.10351562 27.7421875 C26.47729571 29.16698915 25.85036724 30.59147963 25.22265625 32.015625 C24.92988297 32.68644104 24.63710968 33.35725708 24.33546448 34.04840088 C23.11535154 36.78526287 22.13818464 38.86181536 20 41 C17.578125 40.984375 17.578125 40.984375 15 40 C13.296875 37.578125 13.296875 37.578125 11.75 34.25 C11.32654297 33.34616577 11.32654297 33.34616577 10.89453125 32.42407227 C9.90801727 30.29200598 8.95511394 28.1463083 8 26 C7.60103516 25.12907715 7.20207031 24.2581543 6.79101562 23.36083984 C5.50945611 20.56074024 4.25112767 17.75131642 3 14.9375 C2.58975586 14.03354492 2.17951172 13.12958984 1.75683594 12.19824219 C1.38333008 11.3374707 1.00982422 10.47669922 0.625 9.58984375 C0.28726563 8.82534912 -0.05046875 8.06085449 -0.3984375 7.27319336 C-1.12463552 4.52902544 -0.73698813 2.71136257 0 0 Z " fill="#1639CB" transform="translate(175,385)"/>
<path d="M0 0 C4.45827926 -0.0578304 8.9164628 -0.09353855 13.375 -0.125 C15.28152344 -0.15013672 15.28152344 -0.15013672 17.2265625 -0.17578125 C18.43828125 -0.18222656 19.65 -0.18867188 20.8984375 -0.1953125 C22.01911621 -0.20578613 23.13979492 -0.21625977 24.29443359 -0.22705078 C27 0 27 0 29 2 C29.1875 5.5625 29.1875 5.5625 29 9 C28 10 28 10 20 11 C19.67 20.57 19.34 30.14 19 40 C14.545 40.495 14.545 40.495 10 41 C7.24560484 38.24560484 7.69010724 36.53396797 7.5859375 32.6796875 C7.54726563 31.42285156 7.50859375 30.16601562 7.46875 28.87109375 C7.4378125 27.55238281 7.406875 26.23367188 7.375 24.875 C7.33681971 23.53513082 7.29776794 22.19528617 7.2578125 20.85546875 C7.1632797 17.57045381 7.07772844 14.28544862 7 11 C4.36 10.67 1.72 10.34 -1 10 C-2.17592676 5.88425634 -1.70182603 3.86483393 0 0 Z " fill="#1639CB" transform="translate(366,385)"/>
<path d="M0 0 C2.64 0 5.28 0 8 0 C9.65 3.3 11.3 6.6 13 10 C13.33 6.7 13.66 3.4 14 0 C15.65 0 17.3 0 19 0 C19 6.27 19 12.54 19 19 C16.03 19 13.06 19 10 19 C8.68 16.03 7.36 13.06 6 10 C5.67 12.97 5.34 15.94 5 19 C3.35 19 1.7 19 0 19 C0 12.73 0 6.46 0 0 Z " fill="#29BB5F" transform="translate(255,361)"/>
<path d="M0 0 C2.64 0 5.28 0 8 0 C9.65 3.63 11.3 7.26 13 11 C13.33 7.37 13.66 3.74 14 0 C15.65 0 17.3 0 19 0 C19 6.27 19 12.54 19 19 C16.03 19 13.06 19 10 19 C8.68 16.03 7.36 13.06 6 10 C5.67 12.97 5.34 15.94 5 19 C3.35 19 1.7 19 0 19 C0 12.73 0 6.46 0 0 Z " fill="#29BB5F" transform="translate(342,428)"/>
<path d="M0 0 C2.97 0 5.94 0 9 0 C10.32 2.97 11.64 5.94 13 9 C13.33 6.03 13.66 3.06 14 0 C15.65 0 17.3 0 19 0 C19 6.27 19 12.54 19 19 C16.36 19 13.72 19 11 19 C9.35 15.7 7.7 12.4 6 9 C5.67 12.3 5.34 15.6 5 19 C3.35 19 1.7 19 0 19 C0 12.73 0 6.46 0 0 Z " fill="#29BB5F" transform="translate(375,361)"/>
<path d="M0 0 C2.64 0 5.28 0 8 0 C9.65 3.63 11.3 7.26 13 11 C13.33 7.37 13.66 3.74 14 0 C15.65 0 17.3 0 19 0 C19 6.27 19 12.54 19 19 C16.03 19 13.06 19 10 19 C8.68 16.03 7.36 13.06 6 10 C5.67 12.97 5.34 15.94 5 19 C3.35 19 1.7 19 0 19 C0 12.73 0 6.46 0 0 Z " fill="#29BB5F" transform="translate(99,361)"/>
<path d="M0 0 C2.69404546 2.85732095 2.95755496 4.60384628 3.375 8.5 C2.97335498 12.2486869 2.3404622 14.07442224 0 17 C-3.42176689 19.56632517 -6.84640421 19.36435051 -11 19 C-14.12824432 17.67918573 -15.56971762 16.68454014 -17.375 13.8125 C-18.22207016 10.00068429 -18.09177594 6.75445252 -17 3 C-12.43661873 -3.13696102 -6.62699976 -2.52277832 0 0 Z M-12 5 C-12.33333333 8.5 -12.33333333 8.5 -12 12 C-10.10892859 14.33278733 -10.10892859 14.33278733 -6.9375 14.1875 C-4.11166864 14.33187793 -4.11166864 14.33187793 -3 13 C-2.77081758 8.98342857 -2.77081758 8.98342857 -3 5 C-4.82703227 2.7508092 -4.82703227 2.7508092 -7.5 2.75 C-10.17296773 2.7508092 -10.17296773 2.7508092 -12 5 Z " fill="#29BB5F" transform="translate(368,362)"/>
<path d="M0 0 C2.22476109 3.33714164 2.82210637 6.49537261 2.625 10.4375 C1.47978876 13.6923109 0.59524475 15.67516484 -2.125 17.8125 C-6.48755149 19.02431986 -10.06554541 19.04857881 -14.1875 17.125 C-16.375 15.4375 -16.375 15.4375 -18.375 12.4375 C-18.7154385 8.21606265 -18.78897077 5.4954253 -17.25 1.5625 C-12.65765894 -3.6421532 -5.64076756 -3.71103129 0 0 Z M-12.375 4.4375 C-12.70252234 7.15204956 -12.5058425 9.68980759 -12.375 12.4375 C-11.26333136 13.76937793 -11.26333136 13.76937793 -8.4375 13.625 C-5.26607141 13.77028733 -5.26607141 13.77028733 -3.375 11.4375 C-3.04166667 7.9375 -3.04166667 7.9375 -3.375 4.4375 C-5.20203227 2.1883092 -5.20203227 2.1883092 -7.875 2.1875 C-10.54796773 2.1883092 -10.54796773 2.1883092 -12.375 4.4375 Z " fill="#29BB5F" transform="translate(140.375,362.5625)"/>
<path d="M0 0 C2.46394457 1.86662467 2.86487125 3.07488778 3.3046875 6.0859375 C3.53829289 10.22212704 3.36109105 12.42225432 1.125 16 C-2.17567767 19.10652016 -4.43607545 19.27592463 -8.9609375 19.2265625 C-11.87168348 18.90314628 -13.72376884 17.79339425 -16 16 C-17.85127843 12.29744314 -17.4638553 8.04125987 -17 4 C-15.32937076 1.07639883 -14.34017673 -0.5203578 -11.14453125 -1.6640625 C-7.25014336 -2.27411233 -3.68386022 -1.26981546 0 0 Z M-10 3 C-12.30163882 6.45245824 -12.34490322 7.94738713 -12 12 C-10.11340125 14.30662599 -10.11340125 14.30662599 -7 14.3125 C-6.01 14.209375 -5.02 14.10625 -4 14 C-1.43312633 10.1496895 -2.16711276 8.41430237 -3 4 C-5.31 3.67 -7.62 3.34 -10 3 Z " fill="#29BB5F" transform="translate(141,429)"/>
<path d="M0 0 C2.248125 -0.04125 4.49625 -0.0825 6.8125 -0.125 C8.07707031 -0.14820313 9.34164062 -0.17140625 10.64453125 -0.1953125 C14 0 14 0 17 2 C17.1875 5.4375 17.1875 5.4375 17 9 C17 9.99 17 10.98 17 12 C17 14.33333333 17 16.66666667 17 19 C15.35 19 13.7 19 12 19 C11.7525 18.030625 11.505 17.06125 11.25 16.0625 C10.63125 14.5465625 10.63125 14.5465625 10 13 C7.96756452 12.03122943 7.96756452 12.03122943 6 12 C6 14.31 6 16.62 6 19 C4.02 19 2.04 19 0 19 C0 12.73 0 6.46 0 0 Z M6 4 C6 5.32 6 6.64 6 8 C7.65 8 9.3 8 11 8 C11 6.68 11 5.36 11 4 C9.35 4 7.7 4 6 4 Z " fill="#29BB5F" transform="translate(147,361)"/>
<path d="M0 0 C2.4375 1.8125 2.4375 1.8125 4 4 C4 5.32 4 6.64 4 8 C1.625 8.1875 1.625 8.1875 -1 8 C-1.66 7.01 -2.32 6.02 -3 5 C-5.54207971 4.66656449 -5.54207971 4.66656449 -8 5 C-9.20561184 5.98267859 -9.20561184 5.98267859 -9.09765625 7.84765625 C-9.08605469 8.57855469 -9.07445312 9.30945313 -9.0625 10.0625 C-9.041875 11.361875 -9.02125 12.66125 -9 14 C-6.08365871 14.2502157 -6.08365871 14.2502157 -3 14 C-2.34 13.01 -1.68 12.02 -1 11 C1.625 10.8125 1.625 10.8125 4 11 C4.3125 13.25 4.3125 13.25 4 16 C1.90144909 18.42644949 0.2701505 19.76952914 -2.9375 20.3515625 C-7.4164455 20.53818523 -10.40325398 19.85623948 -14 17 C-16.47901079 13.28148381 -16.53001696 10.30743944 -16 6 C-14.60533987 2.43586856 -13.67733614 1.33866807 -10.25 -0.375 C-6.41930181 -1.11167273 -3.77687715 -0.97919037 0 0 Z " fill="#29BB5F" transform="translate(386,428)"/>
<path d="M0 0 C1.9375 1.375 1.9375 1.375 3 3 C3 3.99 3 4.98 3 6 C-1.08718695 6.24042276 -4.17679443 5.42258812 -8 4 C-7.19592168 6.19464263 -7.19592168 6.19464263 -5.00390625 6.67578125 C-4.19824219 6.88589844 -3.39257812 7.09601563 -2.5625 7.3125 C1.7697217 8.68747946 1.7697217 8.68747946 3.75 11.375 C4.08148039 14.85554414 3.11594075 16.27950475 1 19 C-2.2199271 20.60996355 -5.51836876 20.60579052 -9 20 C-12 17.6875 -12 17.6875 -14 15 C-14 14.01 -14 13.02 -14 12 C-11.625 11.8125 -11.625 11.8125 -9 12 C-8.01 13.485 -8.01 13.485 -7 15 C-5.68 15 -4.36 15 -3 15 C-3 14.34 -3 13.68 -3 13 C-3.63808594 12.79503906 -4.27617187 12.59007812 -4.93359375 12.37890625 C-5.75988281 12.10949219 -6.58617187 11.84007812 -7.4375 11.5625 C-8.26121094 11.29566406 -9.08492187 11.02882813 -9.93359375 10.75390625 C-12 10 -12 10 -13 9 C-13.04092937 6.66702567 -13.04241723 4.33294775 -13 2 C-8.25417261 -0.89379719 -5.40172138 -1.4268698 0 0 Z " fill="#29BB5F" transform="translate(167,428)"/>
<path d="M0 0 C13.42069757 -0.369377 13.42069757 -0.369377 15.97265625 1.2578125 C17.29094064 3.49338223 17.12423795 4.54276129 16.625 7.0625 C15.64441806 10.77375378 15.64441806 10.77375378 17 13 C17.039992 14.99960012 17.04346799 17.00047242 17 19 C15.35 19 13.7 19 12 19 C11.34 17.02 10.68 15.04 10 13 C8.35 12.67 6.7 12.34 5 12 C5 14.31 5 16.62 5 19 C3.35 19 1.7 19 0 19 C0 12.73 0 6.46 0 0 Z M5 4 C5 5.32 5 6.64 5 8 C6.98 8 8.96 8 11 8 C11 6.68 11 5.36 11 4 C9.02 4 7.04 4 5 4 Z " fill="#29BB5F" transform="translate(233,361)"/>
<path d="M0 0 C1.98 0 3.96 0 6 0 C6 4.95 6 9.9 6 15 C7.98 15 9.96 15 12 15 C12.33 10.05 12.66 5.1 13 0 C14.65 0 16.3 0 18 0 C18.13526616 2.5850867 18.23417653 5.16308752 18.3125 7.75 C18.35439453 8.47960937 18.39628906 9.20921875 18.43945312 9.9609375 C18.52730613 13.82646976 18.37805109 15.58479561 15.734375 18.48828125 C11.65817831 20.7418357 9.61805661 20.5131174 5 20 C1.76386646 18.25746655 1.17604685 17.52814056 0 14 C-0.06970052 11.60509014 -0.08448003 9.20832309 -0.0625 6.8125 C-0.05347656 5.54019531 -0.04445313 4.26789063 -0.03515625 2.95703125 C-0.02355469 1.98121094 -0.01195312 1.00539063 0 0 Z " fill="#29BB5F" transform="translate(306,361)"/>
<path d="M0 0 C5.28 0 10.56 0 16 0 C16 1.32 16 2.64 16 4 C12.37 4 8.74 4 5 4 C5 4.99 5 5.98 5 7 C8.3 7 11.6 7 15 7 C15 8.65 15 10.3 15 12 C11.7 12 8.4 12 5 12 C5 12.99 5 13.98 5 15 C8.63 15 12.26 15 16 15 C16 16.32 16 17.64 16 19 C10.72 19 5.44 19 0 19 C0 12.73 0 6.46 0 0 Z " fill="#29BB5F" transform="translate(213,361)"/>
<path d="M0 0 C2.64 0 5.28 0 8 0 C9.00605593 2.60197202 10.00502525 5.20629362 11 7.8125 C11.42925781 8.91948242 11.42925781 8.91948242 11.8671875 10.04882812 C12.13789063 10.76103516 12.40859375 11.47324219 12.6875 12.20703125 C12.93886719 12.8616333 13.19023437 13.51623535 13.44921875 14.19067383 C14 16 14 16 14 19 C12.35 19 10.7 19 9 19 C8.67 18.34 8.34 17.68 8 17 C6.10466658 16.53476937 6.10466658 16.53476937 3.9375 16.375 C2.638125 16.25125 1.33875 16.1275 0 16 C-0.33 16.99 -0.66 17.98 -1 19 C-2.65 19 -4.3 19 -6 19 C-4.3186083 12.51292846 -2.46937673 6.2322365 0 0 Z M4 6 C3.34 7.65 2.68 9.3 2 11 C3.32 11 4.64 11 6 11 C5.67 9.35 5.34 7.7 5 6 C4.67 6 4.34 6 4 6 Z " fill="#29BB5F" transform="translate(259,428)"/>
<path d="M0 0 C1.65 0 3.3 0 5 0 C5 2.31 5 4.62 5 7 C7.64 7 10.28 7 13 7 C13 4.69 13 2.38 13 0 C14.65 0 16.3 0 18 0 C18 6.27 18 12.54 18 19 C16.35 19 14.7 19 13 19 C13 16.69 13 14.38 13 12 C10.36 12 7.72 12 5 12 C5 14.31 5 16.62 5 19 C3.35 19 1.7 19 0 19 C0 12.73 0 6.46 0 0 Z " fill="#29BB5F" transform="translate(96,428)"/>
<path d="M0 0 C1.65 0 3.3 0 5 0 C5 2.31 5 4.62 5 7 C7.64 7 10.28 7 13 7 C13 4.69 13 2.38 13 0 C14.65 0 16.3 0 18 0 C18 6.27 18 12.54 18 19 C16.35 19 14.7 19 13 19 C13 16.69 13 14.38 13 12 C10.36 12 7.72 12 5 12 C5 14.31 5 16.62 5 19 C3.35 19 1.7 19 0 19 C0 12.73 0 6.46 0 0 Z " fill="#29BB5F" transform="translate(190,361)"/>
<path d="M0 0 C5.61 0 11.22 0 17 0 C17 5 17 5 15.03125 7.45703125 C14.1959375 8.23433594 13.360625 9.01164062 12.5 9.8125 C11.6646875 10.60269531 10.829375 11.39289063 9.96875 12.20703125 C9.3190625 12.79871094 8.669375 13.39039063 8 14 C10.97 14.33 13.94 14.66 17 15 C17 16.32 17 17.64 17 19 C11.39 19 5.78 19 0 19 C0 14 0 14 1.71484375 11.83203125 C2.44832031 11.16558594 3.18179687 10.49914062 3.9375 9.8125 C6.87557386 7.21289233 6.87557386 7.21289233 9 4 C6.03 4 3.06 4 0 4 C0 2.68 0 1.36 0 0 Z " fill="#29BB5F" transform="translate(329,361)"/>
<path d="M0 0 C2.248125 -0.103125 4.49625 -0.20625 6.8125 -0.3125 C8.70935547 -0.39951172 8.70935547 -0.39951172 10.64453125 -0.48828125 C14 0 14 0 15.95703125 2.3203125 C17.27100713 5.69629548 17.0693027 7.5629556 16 11 C12.91111478 13.05925681 12.29064073 13.2390374 8.8125 13.125 C6.9253125 13.063125 6.9253125 13.063125 5 13 C5 14.98 5 16.96 5 19 C3.35 19 1.7 19 0 19 C0 12.73 0 6.46 0 0 Z M5 4 C5 5.65 5 7.3 5 9 C6.65 9 8.3 9 10 9 C10.59070014 7.05396726 10.59070014 7.05396726 11 5 C9.93354885 3.70366379 9.93354885 3.70366379 7.4375 3.9375 C6.633125 3.958125 5.82875 3.97875 5 4 Z " fill="#29BB5F" transform="translate(180,428)"/>
<path d="M0 0 C5.94 0 11.88 0 18 0 C18 1.32 18 2.64 18 4 C16.02 4 14.04 4 12 4 C12 8.95 12 13.9 12 19 C10.02 19 8.04 19 6 19 C6 14.05 6 9.1 6 4 C4.02 4 2.04 4 0 4 C0 2.68 0 1.36 0 0 Z " fill="#29BB5F" transform="translate(168,361)"/>
<path d="M0 0 C3.96 0 7.92 0 12 0 C12 1.32 12 2.64 12 4 C10.68 4 9.36 4 8 4 C8 7.63 8 11.26 8 15 C9.32 15 10.64 15 12 15 C12 16.32 12 17.64 12 19 C8.04 19 4.08 19 0 19 C0 17.68 0 16.36 0 15 C0.99 15 1.98 15 3 15 C3 11.37 3 7.74 3 4 C2.01 4 1.02 4 0 4 C0 2.68 0 1.36 0 0 Z " fill="#29BB5F" transform="translate(320,428)"/>
<path d="M0 0 C3.96 0 7.92 0 12 0 C12 1.32 12 2.64 12 4 C10.68 4 9.36 4 8 4 C8 7.63 8 11.26 8 15 C9.32 15 10.64 15 12 15 C12 16.32 12 17.64 12 19 C8.04 19 4.08 19 0 19 C0 17.68 0 16.36 0 15 C0.99 15 1.98 15 3 15 C3 11.37 3 7.74 3 4 C2.01 4 1.02 4 0 4 C0 2.68 0 1.36 0 0 Z " fill="#29BB5F" transform="translate(206,428)"/>
<path d="M0 0 C1.98 0 3.96 0 6 0 C6 4.95 6 9.9 6 15 C8.64 15 11.28 15 14 15 C14 16.32 14 17.64 14 19 C9.38 19 4.76 19 0 19 C0 12.73 0 6.46 0 0 Z " fill="#29BB5F" transform="translate(282,428)"/>
<path d="M0 0 C1.98 0 3.96 0 6 0 C6 4.95 6 9.9 6 15 C8.64 15 11.28 15 14 15 C14 16.32 14 17.64 14 19 C9.38 19 4.76 19 0 19 C0 12.73 0 6.46 0 0 Z " fill="#29BB5F" transform="translate(288,361)"/>
<path d="M0 0 C5.61 0 11.22 0 17 0 C17 1.32 17 2.64 17 4 C15.02 4 13.04 4 11 4 C11 8.95 11 13.9 11 19 C9.35 19 7.7 19 6 19 C6 14.05 6 9.1 6 4 C4.02 4 2.04 4 0 4 C0 2.68 0 1.36 0 0 Z " fill="#29BB5F" transform="translate(227,428)"/>
<path d="M0 0 C0.99 0 1.98 0 3 0 C3 7.36768266 1.26273773 10.88626314 -3.85546875 16.1796875 C-6.41734942 18.35425288 -8.68668912 19.4201706 -12 20 C-12.33 19.34 -12.66 18.68 -13 18 C-12.35891863 16.32332564 -11.68528045 14.65910004 -11 13 C-10.2664243 10.34632682 -9.63584616 7.67963737 -9 5 C-8.34 5 -7.68 5 -7 5 C-7 6.98 -7 8.96 -7 11 C-6.8453125 9.329375 -6.8453125 9.329375 -6.6875 7.625 C-6.460625 6.42875 -6.23375 5.2325 -6 4 C-5.01 3.34 -4.02 2.68 -3 2 C-2.67 2.33 -2.34 2.66 -2 3 C-1.34 2.01 -0.68 1.02 0 0 Z " fill="#E4B22C" transform="translate(329,278)"/>
<path d="M0 0 C-0.47629236 3.71508039 -1.28394521 7.23658222 -2.375 10.8125 C-2.60960937 11.58207031 -2.84421875 12.35164063 -3.0859375 13.14453125 C-3.38757813 13.75683594 -3.68921875 14.36914062 -4 15 C-4.99 15.33 -5.98 15.66 -7 16 C-6.67 13.03 -6.34 10.06 -6 7 C-7.32 7 -8.64 7 -10 7 C-8.27783291 1.83349872 -5.35193264 0 0 0 Z " fill="#839B56" transform="translate(344,252)"/>
<path d="M0 0 C0.99 0 1.98 0 3 0 C3 7.64516504 1.0166931 10.8967215 -4.28515625 16.34765625 C-4.85105469 16.89292969 -5.41695313 17.43820312 -6 18 C-6.66 17.67 -7.32 17.34 -8 17 C-7.34064453 15.95779297 -7.34064453 15.95779297 -6.66796875 14.89453125 C-4.93923613 11.89455263 -3.6159702 8.89333212 -2.3125 5.6875 C-1.87550781 4.61886719 -1.43851562 3.55023438 -0.98828125 2.44921875 C-0.66214844 1.64097656 -0.33601563 0.83273437 0 0 Z " fill="#CEAD36" transform="translate(329,278)"/>
<path d="M0 0 C0.66 0 1.32 0 2 0 C2.59720137 5.82271337 0.528243 9.9209404 -2 15 C-2.66 14.34 -3.32 13.68 -4 13 C-3.71125 12.34 -3.4225 11.68 -3.125 11 C-1.76562701 7.37500535 -0.89375361 3.76653307 0 0 Z " fill="#D5AF34" transform="translate(320,283)"/>
<path d="M0 0 C1.41687119 4.25061356 0.19320039 6.71851625 -1 11 C-1.99 11 -2.98 11 -4 11 C-3.48964169 6.6109185 -2.47785723 3.66291938 0 0 Z " fill="#F1B627" transform="translate(342,255)"/>
<path d="M0 0 C0.66 0 1.32 0 2 0 C1.38983051 5.49152542 1.38983051 5.49152542 -0.4375 7.875 C-2 9 -2 9 -4 9 C-3.71125 8.443125 -3.4225 7.88625 -3.125 7.3125 C-1.9586747 4.91505355 -0.9660119 2.48403061 0 0 Z " fill="#EFB528" transform="translate(323,287)"/>
<path d="M0 0 C1.65 0 3.3 0 5 0 C5 1.32 5 2.64 5 4 C3.35 4 1.7 4 0 4 C0 2.68 0 1.36 0 0 Z " fill="#29BB5F" transform="translate(399,443)"/>
<path d="M0 0 C0.99 0 1.98 0 3 0 C3 3 3 3 0.5 5.6875 C-0.325 6.450625 -1.15 7.21375 -2 8 C-2.66 7.67 -3.32 7.34 -4 7 C-3.525625 6.21625 -3.05125 5.4325 -2.5625 4.625 C-1.66101977 3.11051322 -0.78820515 1.5764103 0 0 Z " fill="#699461" transform="translate(325,288)"/>
</svg>
